<svg xmlns="http://www.w3.org/2000/svg" width="24" height="24" viewBox="0 0 24 24" id="calculator"><g stroke-width=".772" transform="translate(-747.847 -13.714) scale(1.29584)"><path fill="#ff6a69" d="m 586.37135,10.583355 c -5.17205,-0.008 -9.25759,1.726339 -9.25759,9.2604 0,7.524773 4.084,9.259761 9.26041,9.260405 5.17641,-6.44e-4 9.26041,-1.735632 9.26041,-9.260405 0,-7.534061 -4.08554,-9.268362 -9.25755,-9.2604 h -0.003 z"></path><path fill="#ff2a2a" d="m 587.2202,17.802971 h 2.12852 c 0.24605,0 0.44413,0.198083 0.44413,0.444132 v 4.021305 c 0,0.246049 -0.19808,0.444132 -0.44413,0.444132 h -2.12852 c -0.24605,0 -0.44413,-0.198083 -0.44413,-0.444132 v -4.021305 c 0,-0.246049 0.19808,-0.444132 0.44413,-0.444132 z"></path><path fill="#121212" d="m 582.56563,14.128744 h 7.61709 c 0.26902,0 0.48559,0.216577 0.48559,0.485599 v 10.458802 c 0,0.269022 -0.21657,0.485599 -0.48559,0.485599 h -7.61709 c -0.26903,0 -0.4856,-0.216577 -0.4856,-0.485599 V 14.614343 c 0,-0.269022 0.21657,-0.485599 0.4856,-0.485599 z"></path><path fill="#ececec" d="m 589.79286,16.546236 v -1.2516 c 0,-0.160929 -0.12956,-0.290485 -0.29049,-0.290485 h -6.25645 c -0.16093,0 -0.29049,0.129556 -0.29049,0.290485 v 1.2516 c 0,0.160929 0.12956,0.290485 0.29049,0.290485 h 6.25645 c 0.16093,0 0.29049,-0.129556 0.29049,-0.290485 z"></path><path fill="#fdfbe5" d="m 587.37397,24.569061 v -0.963888 c 0,-0.09945 -0.0801,-0.179515 -0.17951,-0.179515 h -3.86637 c -0.0995,0 -0.17951,0.08006 -0.17951,0.179515 v 0.963888 c 0,0.09945 0.0801,0.179514 0.17951,0.179514 h 3.86637 c 0.0995,0 0.17951,-0.08006 0.17951,-0.179514 z"></path><path fill="#22c5cc" d="M584.65943 18.934839v-.401584c0-.404578-.3257-.730286-.73028-.730286-.40458 0-.73029.325708-.73029.730286v.401584c0 .404578.32571.730286.73029.730286.40458 0 .73028-.325708.73028-.730286zM584.65943 21.982252v-.401584c0-.404578-.3257-.730286-.73028-.730286-.40458 0-.73029.325708-.73029.730286v.401584c0 .404578.32571.730285.73029.730285.40458 0 .73028-.325707.73028-.730285zM586.77607 21.982254V21.58067c0-.404579-.32571-.730286-.73028-.730286-.40458 0-.73029.325707-.73029.730286v.401584c0 .404578.32571.730285.73029.730285.40457 0 .73028-.325707.73028-.730285zM586.71534 19.044346v-.401585c0-.404578-.32571-.730285-.73028-.730285-.40458 0-.73029.325707-.73029.730285v.401585c0 .404578.32571.730285.73029.730285.40457 0 .73028-.325707.73028-.730285z"></path><path fill="#ff3b30" d="M589.36158 24.057132v-.392733c0-.395662-.31853-.714191-.71419-.714191-.39566 0-.71419.318529-.71419.714191v.392733c0 .395661.31853.71419.71419.71419.39566 0 .71419-.318529.71419-.71419zM589.36158 21.48972v-.392733c0-.395661-.31853-.71419-.71419-.71419-.39566 0-.71419.318529-.71419.71419v.392733c0 .395662.31853.71419.71419.71419.39566 0 .71419-.318528.71419-.71419zM589.36158 18.922313V18.52958c0-.395662-.31853-.714191-.71419-.714191-.39566 0-.71419.318529-.71419.714191v.392733c0 .395661.31853.71419.71419.71419.39566 0 .71419-.318529.71419-.71419z"></path></g></svg>